<svg xmlns="http://www.w3.org/2000/svg" version="1.1" xmlns:xlink="http://www.w3.org/1999/xlink" xmlns:svgjs="http://svgjs.dev/svgjs" width="1000" height="1000" viewBox="0 0 1000 1000"><rect width="1000" height="1000" fill="#ffffff"></rect><g transform="matrix(0.7,0,0,0.7,149.57575763727095,410.20014498540877)"><svg viewBox="0 0 396 102" data-background-color="#000000" preserveAspectRatio="xMidYMid meet" height="257" width="1000" xmlns="http://www.w3.org/2000/svg" xmlns:xlink="http://www.w3.org/1999/xlink"><g id="tight-bounds" transform="matrix(1,0,0,1,0.2400000347989817,-0.08512945253858106)"><svg viewBox="0 0 395.52 102.17025890507718" height="102.17025890507718" width="395.52"><g><svg viewBox="0 0 528.7687148661682 136.59090943259847" height="102.17025890507718" width="395.52"><g transform="matrix(1,0,0,1,133.24871486616829,42.20857361763642)"><svg viewBox="0 0 395.52 52.17376219732562" height="52.17376219732562" width="395.52"><g><svg viewBox="0 0 395.52 52.17376219732562" height="52.17376219732562" width="395.52"><g><svg viewBox="0 0 395.52 52.17376219732562" height="52.17376219732562" width="395.52"><g transform="matrix(1,0,0,1,0,0)"><svg width="395.52" viewBox="2.049999952316284 -36.5 276.69000244140625 36.5" height="52.17376219732562" data-palette-color="#fe0039"><path d="M24.1-5.3L24.3-5.3 33.6-36 46.8-36 46.8-33.1 42.6-32.05 42.6-3.95 46.8-2.9 46.8 0 32.45 0 32.45-2.9 36.1-3.95 36.1-32 27 0 19.9 0 11-32 11-3.95 14.65-2.9 14.65 0 2.05 0 2.05-2.9 6.25-3.95 6.25-32.05 2.05-33.1 2.05-36 15.45-36 24.1-5.3ZM70.5-2.9L74.6-3.95 72.05-11.7 59.85-11.7 57.25-3.95 61.4-2.9 61.4 0 48.2 0 48.2-2.9 52.3-3.95 64-36.5 70.15-36.5 81.75-3.95 85.75-2.9 85.75 0 70.5 0 70.5-2.9ZM66.2-29.9L66-29.9 61.1-15.35 70.85-15.35 66.2-29.9ZM83.8-24.75L83.8-36 115.09-36 115.09-24.75 111.89-24.75 110.3-32.25 102.69-32.25 102.69-4.1 108-2.9 108 0 90.89 0 90.89-2.9 96.19-4.1 96.19-32.25 88.55-32.25 87-24.75 83.8-24.75ZM117.49-24.75L117.49-36 148.79-36 148.79-24.75 145.59-24.75 143.99-32.25 136.39-32.25 136.39-4.1 141.69-2.9 141.69 0 124.59 0 124.59-2.9 129.89-4.1 129.89-32.25 122.24-32.25 120.69-24.75 117.49-24.75ZM188.89-33.1L184.69-32.05 184.69-3.95 188.89-2.9 188.89 0 173.99 0 173.99-2.9 178.19-3.95 178.19-16.65 162.74-16.65 162.74-3.95 166.94-2.9 166.94 0 152.04 0 152.04-2.9 156.24-3.95 156.24-32.05 152.04-33.1 152.04-36 166.94-36 166.94-33.1 162.74-32.05 162.74-20.3 178.19-20.3 178.19-32.05 173.99-33.1 173.99-36 188.89-36 188.89-33.1ZM215.69-25.1L215.69-11.9 211.64-11.9 210.79-16.6 203.94-16.6 203.94-3.75 217.69-3.75 219.09-11.15 223.49-11.15 223.49 0 192.74 0 192.74-2.9 197.44-3.95 197.44-32.05 192.74-33.1 192.74-36 222.39-36 222.39-25.4 218.29-25.4 216.84-32.35 203.94-32.35 203.94-20.35 210.79-20.35 211.64-25.1 215.69-25.1ZM262.49-6.35L262.69-6.35 269.74-32.1 265.79-33.1 265.79-36 278.74-36 278.74-33.1 274.59-32.05 265.34 0 258.63 0 252.09-21.55 246.14 0 239.44 0 229.19-32.05 225.28-33.1 225.28-36 240.99-36 240.99-33.1 236.19-32.05 243.28-6.4 243.49-6.4 249.79-29.8 249.34-32.05 245.44-33.1 245.44-36 260.13-36 260.13-33.1 255.54-32.05 262.49-6.35Z" opacity="1" transform="matrix(1,0,0,1,0,0)" fill="#000000" class="undefined-text-0" data-fill-palette-color="primary" id="text-0"></path></svg></g></svg></g></svg></g></svg></g><g><svg viewBox="0 0 120.93174178167244 136.59090943259847" height="136.59090943259847" width="120.93174178167244"><g><svg xmlns="http://www.w3.org/2000/svg" data-name="Glyph Icon" viewBox="7.210000038146973 4 49.58000183105469 56" x="0" y="0" height="136.59090943259847" width="120.93174178167244" class="icon-icon-0" data-fill-palette-color="accent" id="icon-0"><path d="M49.13 20.84l-16-9.26V4L55.7 17.05ZM32 50.52L16 41.26V22.74l16-9.26 16 9.26V41.26ZM30.91 11.58l-16 9.26L8.3 17.05 30.91 4ZM13.77 22.74V41.26L7.21 45.05V19Zm1.1 20.42l16 9.26V60L8.3 47Zm18.22 9.26l16-9.26L55.7 47 33.09 60ZM50.23 41.26V22.74L56.79 19v26.1Z" fill="#000000" data-fill-palette-color="accent"></path></svg></g></svg></g></svg></g><defs></defs></svg><rect width="395.52" height="102.17025890507718" fill="none" stroke="none" visibility="hidden"></rect></g></svg></g></svg>